<svg width="141" height="79" viewBox="0 0 141 79" fill="none" xmlns="http://www.w3.org/2000/svg">
<path d="M27.2917 6.00425C27.5255 6.00402 27.7593 6.00215 27.9932 6.00019C29.4085 5.99462 30.809 6.10816 32.187 6.44857C32.2764 6.47047 32.3657 6.49237 32.4578 6.51494C34.024 6.91556 35.503 7.47941 36.9109 8.27578C36.9862 8.31808 37.0615 8.36038 37.1391 8.40396C37.2046 8.4419 37.27 8.47984 37.3375 8.51892C37.5567 8.62749 37.5567 8.62749 37.9404 8.60046C38.0935 8.49841 38.0935 8.49841 38.2497 8.3943C40.57 8.43808 42.7517 10.2563 44.3317 11.7961C44.3974 11.8597 44.4631 11.9233 44.5309 11.9889C45.3792 12.8128 46.1814 13.6451 46.9088 14.5794C47.0018 14.6932 47.0951 14.8067 47.1887 14.92C49.5281 17.7681 52.4836 21.5206 52.2692 25.4033C52.112 26.6261 51.5882 28.0872 50.6199 28.9081C49.7154 29.5725 48.7538 29.8709 47.6304 29.7328C46.4537 29.4186 45.532 28.6353 44.8879 27.6155C44.721 27.3194 44.5633 27.0204 44.409 26.7176C44.3514 26.6054 44.2938 26.4932 44.2345 26.3776C43.3046 24.5255 42.6269 22.5688 41.9423 20.6164C41.6082 19.6635 41.2623 18.7162 40.8958 17.7753C40.8217 17.5853 40.7484 17.3949 40.675 17.2046C40.6304 17.0912 40.5857 16.9778 40.5397 16.8609C40.5005 16.7609 40.4613 16.6608 40.4209 16.5578C40.3321 16.316 40.3321 16.316 40.1052 16.2287C40.114 16.3226 40.1228 16.4165 40.1319 16.5132C40.2154 17.4033 40.2988 18.2933 40.3821 19.1834C40.4249 19.6409 40.4678 20.0983 40.5107 20.5558C40.5523 20.9983 40.5937 21.4407 40.6351 21.8832C40.6508 22.051 40.6665 22.2188 40.6823 22.3866C40.945 25.1812 40.945 25.1812 40.9508 26.4482C40.9514 26.5517 40.952 26.6553 40.9526 26.7619C40.9536 26.9791 40.9543 27.1962 40.9547 27.4134C40.9557 27.7395 40.9589 28.0656 40.9621 28.3917C40.9754 30.9461 40.6645 33.5386 38.8424 35.4927C37.3872 36.8461 35.6819 37.15 33.7639 37.0913C32.277 37.0103 30.917 36.4012 29.8998 35.2994C29.0408 34.1734 28.5822 32.9593 28.6584 31.5352C28.725 31.083 28.8871 30.8736 29.2465 30.6004C29.504 30.4339 29.7659 30.2807 30.0364 30.1365C30.8743 29.6784 31.4922 28.831 31.852 27.9611C31.9926 27.4566 32.0473 27.0717 31.8584 26.5759C31.3407 25.961 30.6781 25.7184 29.8998 25.6094C29.837 25.6006 29.7741 25.5918 29.7093 25.5828C27.912 25.3552 25.3944 25.1668 23.8178 26.2279C23.53 26.5518 23.4197 26.754 23.354 27.1815C23.5221 28.4422 24.2783 29.3382 25.2038 30.158C25.5019 30.3768 25.8096 30.5162 26.1437 30.6735C26.4602 30.8502 26.4602 30.8502 26.7042 31.0729C26.8425 31.5719 26.7876 32.01 26.7042 32.5161C26.6871 32.6245 26.6699 32.733 26.6523 32.8447C26.3739 34.1891 25.6265 35.3744 24.4682 36.1355C23.3482 36.7957 22.192 37.1108 20.8928 37.0969C20.7892 37.0962 20.6856 37.0954 20.5788 37.0946C19.0223 37.0601 17.6455 36.497 16.5049 35.4214C14.9222 33.7426 14.4339 31.4415 14.4126 29.2029C14.4116 29.1139 14.4106 29.025 14.4095 28.9333C14.407 28.6414 14.4057 28.3496 14.4049 28.0577C14.4047 27.9561 14.4044 27.8545 14.4041 27.7499C14.4035 25.7388 14.5547 23.7575 14.7597 21.7583C14.8684 20.6975 14.961 19.6353 15.0538 18.573C15.0974 18.0754 15.1418 17.5779 15.1861 17.0804C15.2009 16.9139 15.2157 16.7474 15.2305 16.5809C15.2408 16.4647 15.2512 16.3485 15.2618 16.2287C14.9668 16.3762 14.9452 16.5546 14.8229 16.8589C14.7529 17.0327 14.7529 17.0327 14.6815 17.21C14.6301 17.3403 14.5787 17.4707 14.5273 17.601C14.5008 17.6676 14.4743 17.7341 14.4471 17.8026C13.9697 19.0019 13.5297 20.2139 13.0937 21.4287C10.5978 28.3792 10.5978 28.3792 8.35514 29.5266C7.44828 29.8866 6.56752 29.7845 5.66729 29.4562C4.44446 28.906 3.77577 27.8494 3.30399 26.6342C2.63732 24.6733 3.15236 22.871 4.02558 21.0737C4.08246 20.9545 4.13933 20.8353 4.19793 20.7125C5.51 18.1145 7.36738 15.7293 9.2829 13.5485C9.39233 13.422 9.39233 13.422 9.50397 13.2928C11.4459 11.0842 13.7084 8.97101 16.705 8.40718C17.0323 8.39354 17.1482 8.4469 17.4266 8.60046C17.7554 8.54694 18.0264 8.41469 18.3217 8.26463C21.1718 6.84197 24.0938 6.00391 27.2917 6.00425Z" fill="#382507"/>
<path d="M40.6799 45.1418C41.2212 45.2239 41.473 45.5609 41.8383 45.9492C41.9112 46.0244 41.9841 46.0996 42.0592 46.1771C42.5266 46.6647 42.9709 47.1639 43.3846 47.698C43.4962 47.837 43.4962 47.837 43.6101 47.9787C43.6627 48.0537 43.7152 48.1287 43.7693 48.206C44.1551 48.7111 44.1551 48.7111 44.7105 48.9876C45.0319 49.0119 45.3413 49.0083 45.6634 48.9934C45.8387 48.9911 45.8387 48.9911 46.0177 48.9887C46.3901 48.9829 46.762 48.9706 47.1343 48.958C47.5047 48.9497 47.8751 48.9428 48.2455 48.9361C48.4752 48.9315 48.7049 48.9258 48.9346 48.9186C49.6193 48.8993 50.2808 48.9305 50.9619 49.0063C51.2607 49.0365 51.2607 49.0365 51.5347 48.8034C51.607 48.7013 51.6793 48.5993 51.7538 48.4941C51.868 48.3785 51.9841 48.2648 52.1017 48.1526C52.4169 47.8375 52.7115 47.5089 53.0029 47.1717C53.297 46.8324 53.5956 46.4974 53.8984 46.1658C54.0413 46.0088 54.1818 45.8496 54.3188 45.6875C54.4077 45.5874 54.4077 45.5874 54.4984 45.4853C54.5487 45.4265 54.5989 45.3676 54.6506 45.3069C54.8463 45.1954 54.8463 45.1954 55.2027 45.1753C55.5948 45.3075 55.6244 45.3211 55.7971 45.6645C55.8636 45.8268 55.9266 45.9906 55.9867 46.1554C56.0209 46.2431 56.0551 46.3308 56.0903 46.4212C56.7612 48.1825 57.2563 50.0088 57.4883 51.8814C57.6275 52.9908 57.8834 53.9965 58.2617 55.0508C58.6728 56.1989 58.7873 57.1773 58.7636 58.3902C58.8463 58.3886 58.929 58.387 59.0142 58.3853C59.3881 58.3789 59.7619 58.3749 60.1359 58.3709C60.266 58.3683 60.3962 58.3657 60.5303 58.3631C60.6549 58.3621 60.7795 58.3611 60.9078 58.36C61.0228 58.3584 61.1378 58.3568 61.2562 58.3551C61.5468 58.3902 61.5468 58.3902 61.7394 58.5302C61.9038 58.7687 61.8924 58.932 61.8561 59.2149C61.5686 59.5025 61.355 59.5193 60.9542 59.5359C60.8484 59.5353 60.7426 59.5348 60.6336 59.5342C60.5186 59.5339 60.4037 59.5336 60.2853 59.5332C60.1658 59.5324 60.0463 59.5315 59.9233 59.5306C59.8022 59.5301 59.6812 59.5297 59.5564 59.5292C59.2578 59.528 58.9591 59.5263 58.6605 59.5242C58.648 59.5938 58.6355 59.6634 58.6226 59.7352C58.5967 59.8731 58.5967 59.8731 58.5703 60.0138C58.5452 60.1502 58.5452 60.1502 58.5195 60.2893C58.4576 60.5416 58.3739 60.7412 58.2481 60.9674C58.3501 60.9663 58.4521 60.9652 58.5571 60.9641C58.9348 60.9604 59.3125 60.958 59.6902 60.956C59.8538 60.955 60.0174 60.9536 60.181 60.9518C60.4159 60.9493 60.6507 60.9481 60.8857 60.9472C60.959 60.9462 61.0323 60.9451 61.1079 60.944C61.2888 60.944 61.4695 60.9548 61.6499 60.9674C61.8561 61.1735 61.8561 61.1735 61.8948 61.4248C61.8561 61.6889 61.8561 61.6889 61.6987 61.8597C61.3419 62.0535 61.018 62.0222 60.6243 62.0038C60.4608 62.0011 60.2972 61.9987 60.1337 61.9966C59.8773 61.9919 59.6217 61.9854 59.3656 61.9731C58.4175 61.8982 58.4175 61.8982 57.5673 62.2314C57.3227 62.5046 57.1592 62.7867 56.9843 63.1102C56.8087 63.4345 56.635 63.6252 56.3668 63.8731C56.1868 64.0577 56.1868 64.0577 56.0834 64.2661C56.0994 64.4884 56.0994 64.4884 56.1909 64.7183C56.2217 64.809 56.2526 64.8998 56.2843 64.9933C56.3201 65.0935 56.3558 65.1937 56.3926 65.2969C56.4681 65.5237 56.5434 65.7505 56.6185 65.9774C56.7411 66.3413 56.8642 66.7051 56.9876 67.0687C57.6077 68.9114 57.6077 68.9114 57.4235 69.4203C55.639 72.168 50.5748 73.3334 47.5885 73.9807C44.3259 74.6672 40.8616 75.08 37.5281 74.9869C37.4962 74.0548 37.5875 73.1739 37.7407 72.2551C37.7521 72.1863 37.7634 72.1175 37.7751 72.0466C38.1461 69.8153 38.7257 67.67 39.4952 65.5429C39.5294 65.4463 39.5637 65.3496 39.5989 65.2501C39.6566 65.0891 39.7164 64.9288 39.7798 64.77C39.8613 64.5649 39.8613 64.5649 39.8991 64.2661C39.7484 63.9959 39.7484 63.9959 39.4932 63.7764C39.2094 63.5055 39.0069 63.3088 38.8346 62.9526C38.6664 62.6153 38.5187 62.3667 38.2497 62.1013C37.7075 61.9507 37.1823 61.9698 36.6261 61.9918C36.4062 61.9955 36.1863 61.9976 35.9664 61.9989C35.7679 62.0009 35.5695 62.0069 35.3711 62.0131C35.0541 61.9982 35.0541 61.9982 34.7448 61.792C34.6997 61.5408 34.6997 61.5408 34.7448 61.2766C34.9761 61.0481 35.1157 60.9725 35.4406 60.9322C35.5464 60.9339 35.6522 60.9355 35.7612 60.9372C35.8761 60.9382 35.9911 60.9391 36.1095 60.9402C36.229 60.9428 36.3484 60.9454 36.4715 60.948C36.5926 60.9494 36.7136 60.9508 36.8383 60.9523C37.137 60.9559 37.4356 60.961 37.7343 60.9674C37.7045 60.8977 37.6748 60.8281 37.6441 60.7564C37.5867 60.6184 37.5867 60.6184 37.5281 60.4777C37.4707 60.3414 37.4707 60.3414 37.4121 60.2023C37.322 59.9365 37.322 59.9365 37.322 59.5242C37.2268 59.5266 37.2268 59.5266 37.1298 59.5291C36.8416 59.5355 36.5535 59.5395 36.2653 59.5435C36.1655 59.5461 36.0657 59.5487 35.9629 59.5514C35.8184 59.5528 35.8184 59.5528 35.671 59.5544C35.5825 59.556 35.4939 59.5576 35.4027 59.5593C35.1024 59.5163 34.963 59.4227 34.7448 59.2149C34.6933 58.9572 34.6933 58.9572 34.7448 58.6995C34.9337 58.481 35.0873 58.3981 35.3746 58.3657C35.6378 58.3598 35.8991 58.3633 36.1622 58.3709C36.2996 58.373 36.2996 58.373 36.4397 58.3751C36.6651 58.3788 36.8904 58.3839 37.1158 58.3902C37.1122 58.3114 37.1086 58.2326 37.1049 58.1515C37.0631 56.4988 37.5188 54.9587 38.1466 53.4422C38.1806 53.4082 38.2147 53.3741 38.2497 53.3391C38.2756 53.1639 38.2956 52.9878 38.3129 52.8116C38.3244 52.7011 38.3358 52.5906 38.3476 52.4767C38.36 52.3573 38.3723 52.238 38.385 52.115C38.5669 50.4802 38.8663 48.9633 39.3772 47.3988C39.4106 47.2962 39.444 47.1935 39.4783 47.0877C40.0995 45.259 40.0995 45.259 40.6799 45.1418Z" fill="#382507"/>
<path d="M13.5094 34.5776C13.5775 34.5776 13.6455 34.5776 13.7156 34.5776C13.7495 34.6463 13.7834 34.715 13.8183 34.7858C14.8413 36.768 16.4166 38.0475 18.5348 38.7332C20.7004 39.3502 23.1185 39.0415 25.0871 37.9537C25.8952 37.4534 26.588 36.823 27.1835 36.0832C27.3559 35.8784 27.5441 35.6928 27.7351 35.5054C27.7989 35.6027 27.7989 35.6027 27.864 35.7019C29.0828 37.5084 30.7564 38.4888 32.8894 38.9072C33.1992 38.9525 33.5049 38.9843 33.8171 39.0103C33.8521 39.2357 33.8863 39.4612 33.9202 39.6868C33.9393 39.8123 33.9585 39.9379 33.9782 40.0673C34.0222 40.4437 34.0471 40.7967 34.0233 41.1751C33.7978 41.3877 33.7978 41.3877 33.5079 41.4843C33.2695 41.4263 33.2695 41.4263 32.9924 41.2781C32.8574 41.2089 32.7221 41.1402 32.5865 41.072C32.5218 41.038 32.4571 41.0039 32.3904 40.9689C30.449 40.0701 28.4763 40.8965 26.6084 41.5663C25.2901 42.0373 23.9595 42.4725 22.631 42.9135C22.1628 43.0689 21.6948 43.225 21.2268 43.3813C19.2987 44.0246 17.3687 44.6614 15.4332 45.2819C13.9995 45.6217 13.9995 45.6217 12.8909 46.4324C12.8622 46.6574 12.8622 46.6574 12.8716 46.8963C12.8723 46.976 12.8729 47.0557 12.8736 47.1379C12.8834 47.3791 12.8834 47.3791 12.994 47.6694C13.6397 47.7891 14.0702 47.7442 14.6873 47.5349C14.7726 47.5075 14.8579 47.48 14.9458 47.4517C15.2343 47.3584 15.5219 47.2627 15.8095 47.1669C16.0176 47.0989 16.2258 47.031 16.434 46.9632C17.0378 46.766 17.6408 46.5662 18.2435 46.3658C18.6956 46.2155 19.1479 46.0659 19.6001 45.9162C21.183 45.3923 22.7652 44.8667 24.3464 44.3379C24.5031 44.2856 24.6597 44.2333 24.8163 44.1811C25.6294 43.9101 26.4405 43.635 27.247 43.3449C27.3826 43.2966 27.5181 43.2483 27.6537 43.2C27.9012 43.1114 28.1483 43.0215 28.3947 42.9299C29.3242 42.598 30.3088 42.3407 31.2722 42.6698C32.604 43.3023 33.4577 44.6025 34.0233 45.917C34.0761 46.0369 34.0761 46.0369 34.13 46.1594C34.5036 47.1708 34.5093 48.598 34.1368 49.6111C33.4962 50.8696 32.4281 51.6094 31.1369 52.102C30.0505 52.3839 28.9574 52.2411 27.9413 51.7928C27.8392 51.7247 27.7372 51.6567 27.632 51.5866C27.0828 51.6048 26.7113 51.8525 26.2746 52.1584C26.2029 52.2073 26.1312 52.2563 26.0573 52.3067C25.8191 52.4694 25.582 52.6336 25.3449 52.7979C25.1767 52.9131 25.0084 53.0283 24.8401 53.1433C24.481 53.3887 24.1223 53.6346 23.7637 53.8807C22.9039 54.47 22.0384 55.051 21.1735 55.6328C19.9308 56.469 18.6891 57.3068 17.4524 58.1518C17.2829 58.2674 17.1134 58.383 16.9439 58.4985C16.6561 58.6948 16.3693 58.8922 16.0829 59.0904C14.2173 60.3732 12.0953 61.4987 9.7984 61.6889C9.71388 61.6961 9.62937 61.7033 9.5423 61.7107C8.2218 61.7653 6.94717 61.3303 5.91984 60.5099C4.79654 59.4522 4.18237 57.7976 4.11213 56.2785C4.03381 49.1253 7.22372 43.7698 11.1385 37.9794C11.2098 37.8739 11.281 37.7684 11.3545 37.6598C11.7259 37.1111 12.1007 36.565 12.4786 36.0208C12.5285 35.9484 12.5785 35.876 12.63 35.8014C12.7742 35.5926 12.9193 35.3846 13.0649 35.1768C13.1072 35.1154 13.1496 35.054 13.1932 34.9907C13.2934 34.8492 13.4008 34.7128 13.5094 34.5776Z" fill="#382507"/>
<path d="M34.7448 52.1022C34.8743 53.1302 34.8776 54.1639 34.884 55.1985C34.8857 55.4036 34.8886 55.6088 34.8925 55.8139C34.8981 56.1122 34.9004 56.4104 34.9019 56.7088C34.9042 56.8006 34.9065 56.8924 34.909 56.987C34.9081 57.2253 34.9038 57.437 34.8479 57.6687C34.5985 57.8661 34.5985 57.8661 34.3325 57.978C33.9996 58.4715 33.9683 58.8447 34.0232 59.4212C34.1554 59.7045 34.1554 59.7045 34.3325 59.9366C34.4027 60.0733 34.472 60.2105 34.5387 60.3489C34.4728 60.4297 34.4068 60.5105 34.3389 60.5938C33.9742 61.0579 33.9682 61.4214 34.0232 61.9983C34.1293 62.2984 34.1293 62.2984 34.3325 62.5137C34.4202 62.5455 34.5079 62.5773 34.5982 62.6101C34.8479 62.823 34.8479 62.823 34.8947 63.045C34.9118 63.356 34.9116 63.6633 34.9064 63.9747C34.9065 64.0934 34.9066 64.2121 34.9067 64.3344C34.9063 64.7276 34.9023 65.1208 34.8983 65.5141C34.8973 65.7863 34.8966 66.0586 34.896 66.3309C34.8944 66.9749 34.8902 67.6189 34.885 68.2629C34.8793 68.9961 34.8764 69.7292 34.8739 70.4624C34.8685 71.9706 34.8594 73.4788 34.8479 74.987C34.0651 74.9901 33.2822 74.9922 32.4994 74.9937C32.2341 74.9943 31.9687 74.9951 31.7034 74.9962C24.1693 75.0258 14.8371 74.2325 9.16534 68.6903C7.99093 67.5062 7.0773 66.0796 6.60271 64.4723C6.57973 64.3962 6.55674 64.32 6.53305 64.2416C6.41836 63.8273 6.38931 63.4566 6.39655 63.0291C6.49674 63.0664 6.59693 63.1036 6.70016 63.1419C9.36097 64.0641 12.0197 63.4262 14.4882 62.2329C15.8153 61.5571 17.0347 60.6873 18.2513 59.8335C18.5409 59.6311 18.8307 59.4288 19.1206 59.2268C19.3139 59.092 19.507 58.957 19.7 58.8217C20.3663 58.3563 21.0405 57.9035 21.7173 57.4535C22.6438 56.8374 23.5664 56.2157 24.4889 55.5936C24.7889 55.3913 25.089 55.1892 25.3891 54.9871C25.5813 54.8576 25.7735 54.728 25.9657 54.5984C26.0992 54.5085 26.0992 54.5085 26.2354 54.4168C26.3182 54.361 26.4009 54.3051 26.4861 54.2476C26.5584 54.1989 26.6306 54.1502 26.705 54.1001C26.9161 53.9574 26.9161 53.9574 27.1274 53.7828C27.3227 53.6484 27.3227 53.6484 27.574 53.6823C27.6612 53.7136 27.7483 53.745 27.8382 53.7773C27.9253 53.8076 28.0125 53.8379 28.1023 53.8691C28.1852 53.8983 28.2682 53.9276 28.3536 53.9577C29.9484 54.4198 31.7393 54.0294 33.1589 53.2643C33.6538 52.9825 34.0742 52.6517 34.4831 52.2536C34.6417 52.1022 34.6417 52.1022 34.7448 52.1022Z" fill="#382507"/>
<path d="M54.4533 31.3821C55.3653 32.0307 55.8698 33.0509 56.4183 33.9979C56.5487 34.2207 56.6794 34.4434 56.81 34.6661C56.8958 34.8123 56.9815 34.9587 57.0671 35.105C57.4386 35.74 57.8202 36.3684 58.2083 36.9933C58.4252 37.3442 58.6361 37.698 58.8408 38.0561C58.8836 38.1307 58.9264 38.2054 58.9705 38.2823C59.1321 38.6183 59.1414 38.8528 59.0728 39.2166C58.8666 39.5709 58.8666 39.5709 58.5574 39.8351C58.2661 39.912 58.022 39.9195 57.7327 39.8351C57.2987 39.5368 57.0452 39.1954 56.7864 38.7458C56.7476 38.6805 56.7089 38.6151 56.669 38.5477C56.5458 38.3396 56.4241 38.1306 56.3024 37.9216C56.1419 37.6485 55.981 37.3757 55.82 37.1029C55.781 37.0368 55.742 36.9706 55.7019 36.9025C55.1212 35.8114 55.1212 35.8114 54.3309 34.887C54.0688 34.844 54.0688 34.844 53.8155 34.887C53.7134 34.9891 53.7134 34.9891 53.6093 35.0932C53.6337 35.6501 53.8075 36.0483 54.0993 36.511C54.158 36.6073 54.158 36.6073 54.2178 36.7055C54.3424 36.9097 54.4686 37.1128 54.595 37.3159C54.6771 37.4494 54.759 37.5828 54.8409 37.7164C54.8812 37.7823 54.9216 37.8481 54.9632 37.916C55.125 38.1804 55.2861 38.4452 55.4471 38.7101C55.5283 38.8426 55.6101 38.9746 55.6927 39.1061C55.8128 39.2974 55.9303 39.4901 56.0475 39.6833C56.1164 39.7945 56.1854 39.9057 56.2564 40.0203C56.4237 40.4259 56.4015 40.6516 56.2895 41.0721C55.9735 41.4257 55.7785 41.5683 55.3102 41.6519C54.7467 41.5513 54.438 41.2209 54.1145 40.7715C54.0181 40.608 54.0181 40.608 53.9198 40.4411C53.8664 40.3518 53.8664 40.3518 53.812 40.2608C53.6983 40.07 53.5862 39.8785 53.474 39.6869C53.3573 39.4906 53.2402 39.2946 53.1231 39.0986C53.0466 38.9704 52.9702 38.8422 52.8939 38.7138C52.6099 38.2361 52.3192 37.7636 52.0179 37.2966C51.95 37.1911 51.8821 37.0856 51.8122 36.9769C51.6567 36.7361 51.6567 36.7361 51.4445 36.5364C51.1868 36.4934 51.1868 36.4934 50.9291 36.5364C50.6942 36.8228 50.6942 36.8228 50.735 37.1271C50.845 37.5345 51.0314 37.8624 51.2512 38.2179C51.2953 38.2913 51.3393 38.3647 51.3847 38.4404C51.6057 38.8079 51.8301 39.1732 52.0553 39.5381C52.1964 39.7668 52.337 39.9957 52.4771 40.2249C52.6158 40.4515 52.7555 40.6775 52.8964 40.9027C53.5062 41.9002 53.5062 41.9002 53.5062 42.5153C53.3655 42.8794 53.2322 43.0072 52.907 43.224C52.5216 43.36 52.346 43.3683 51.9599 43.2369C51.4579 42.8099 51.1505 42.2833 50.8131 41.7228C50.7551 41.6279 50.697 41.5331 50.6372 41.4353C50.3492 40.9642 50.065 40.491 49.7831 40.0163C49.7329 39.9324 49.6827 39.8485 49.6309 39.7621C49.5367 39.6044 49.4433 39.4462 49.351 39.2874C49.0997 38.867 48.8666 38.5718 48.4551 38.2888C48.1999 38.3909 48.1999 38.3909 47.9396 38.495C47.8951 39.0327 48.018 39.3207 48.2944 39.7787C48.3314 39.8408 48.3683 39.9028 48.4064 39.9668C48.5244 40.1642 48.6443 40.3604 48.7643 40.5567C48.8413 40.6846 48.9182 40.8126 48.995 40.9406C49.2234 41.3205 49.4543 41.699 49.6856 42.0772C49.8041 42.2712 49.9225 42.4652 50.0408 42.6594C50.1462 42.8322 50.2517 43.0049 50.3573 43.1776C50.5978 43.5779 50.6745 43.794 50.6198 44.2677C50.4071 44.6315 50.2817 44.8256 49.8817 44.9623C49.4795 45.0288 49.2779 45.0586 48.9298 44.8204C48.6311 44.5496 48.4574 44.2885 48.2529 43.9415C48.2165 43.8805 48.18 43.8195 48.1424 43.7566C48.0267 43.5624 47.9122 43.3675 47.7979 43.1724C47.6473 42.9174 47.4961 42.6626 47.3445 42.4082C47.3079 42.3467 47.2713 42.2852 47.2336 42.2218C46.7235 41.3418 46.7235 41.3418 46.0841 40.5567C45.8436 40.5524 45.603 40.5523 45.3625 40.5567C45.2422 40.9668 45.2446 41.1417 45.421 41.5384C45.5 41.6718 45.5809 41.8041 45.6633 41.9354C45.706 42.0063 45.7486 42.0772 45.7925 42.1502C45.9289 42.376 46.0677 42.6002 46.2065 42.8245C46.298 42.9753 46.3894 43.1262 46.4805 43.2771C46.9518 44.0552 46.9518 44.0552 47.4491 44.8167C47.7095 45.2127 47.726 45.445 47.7335 45.9171C47.5712 46.2903 47.4563 46.4111 47.115 46.6387C46.6383 46.7022 46.3218 46.713 45.9295 46.4196C45.4911 46.0002 45.2285 45.4561 44.9409 44.9293C44.5325 44.1985 44.0279 43.4105 43.1977 43.1338C41.2763 42.9203 39.7157 44.15 38.1466 45.0924C37.8842 45.2491 37.6217 45.4056 37.3589 45.5614C37.2088 45.6504 37.0591 45.7399 36.9097 45.83C36.4172 46.1232 36.4172 46.1232 36.188 46.1232C36.1679 46.0658 36.1477 46.0083 36.127 45.9491C35.6783 44.6826 35.1793 43.5329 34.4355 42.4122C34.8199 41.9664 35.3061 41.7068 35.8079 41.4136C35.9966 41.3019 36.1853 41.1902 36.374 41.0785C36.4663 41.0242 36.5587 40.9698 36.6538 40.9138C36.9789 40.7219 37.3018 40.5266 37.6247 40.3312C38.3234 39.9103 39.0281 39.4997 39.7323 39.0881C40.6928 38.5265 41.6511 37.9624 42.5982 37.3784C43.7505 36.6695 44.9191 35.9871 46.0841 35.2993C46.3626 35.1349 46.6411 34.9704 46.9196 34.8059C47.0974 34.7008 47.2753 34.5959 47.4533 34.491C47.9562 34.1943 48.4581 33.896 48.9588 33.5958C49.2509 33.4208 49.5431 33.2461 49.8354 33.0715C49.9777 32.9863 50.1198 32.901 50.2619 32.8154C53.2624 31.0085 53.2624 31.0085 54.4533 31.3821Z" fill="#382507"/>
<path d="M22.3747 19.3213C22.9626 19.8559 23.3005 20.3512 23.3411 21.151C23.3238 21.798 23.1682 22.3436 22.7009 22.808C22.2025 23.2023 21.7442 23.4046 21.1119 23.4897C20.4837 23.4165 19.9421 23.1814 19.4948 22.7259C18.9869 22.0727 18.8864 21.4817 18.9729 20.6614C19.1896 19.9201 19.6984 19.4546 20.3517 19.0764C21.0423 18.912 21.7597 18.9437 22.3747 19.3213Z" fill="#FFFBFB"/>
<path d="M35.3634 19.3213C35.8792 19.7315 36.2332 20.2566 36.3274 20.9146C36.3504 21.5971 36.2625 22.1965 35.8031 22.721C35.3116 23.183 34.8827 23.4268 34.194 23.4543C33.4947 23.4284 32.9924 23.1943 32.477 22.723C32.0297 22.1497 31.9039 21.5822 31.9616 20.8675C32.1542 20.1354 32.4476 19.6237 33.0955 19.2182C33.8555 18.8624 34.6362 18.9334 35.3634 19.3213Z" fill="#FFFBFB"/>
<path d="M22.4143 20.8322C22.7038 21.1012 22.8702 21.3503 22.8902 21.7527C22.8817 22.0782 22.8051 22.3527 22.5749 22.5864C22.3295 22.7848 22.1039 22.8865 21.7925 22.9294C21.4831 22.8925 21.2164 22.7742 20.9961 22.545C20.746 22.2164 20.6965 21.9191 20.7391 21.5064C20.8458 21.1334 21.0964 20.8993 21.4181 20.709C21.7582 20.6263 22.1115 20.6422 22.4143 20.8322Z" fill="#382507"/>
<path d="M35.5041 20.8312C35.7589 21.0394 35.9337 21.306 35.9803 21.6401C35.9917 21.9865 35.9482 22.2908 35.7213 22.5571C35.4785 22.7916 35.2666 22.9154 34.9264 22.9294C34.5809 22.9162 34.3328 22.7974 34.0782 22.5581C33.8572 22.267 33.7951 21.9789 33.8236 21.6161C33.9188 21.2444 34.0637 20.9847 34.3838 20.7788C34.7592 20.5982 35.1448 20.6343 35.5041 20.8312Z" fill="#382507"/>
<path d="M22.4143 20.8322C22.7038 21.1012 22.8702 21.3503 22.8902 21.7527C22.8817 22.0782 22.8051 22.3527 22.5749 22.5864C22.3295 22.7848 22.1039 22.8865 21.7925 22.9294C21.4831 22.8925 21.2164 22.7742 20.9961 22.545C20.746 22.2164 20.6965 21.9191 20.7391 21.5064C20.8458 21.1334 21.0964 20.8993 21.4181 20.709C21.7582 20.6263 22.1115 20.6422 22.4143 20.8322Z" fill="#382507"/>
<path d="M35.5041 20.8312C35.7589 21.0394 35.9337 21.306 35.9803 21.6401C35.9917 21.9865 35.9482 22.2908 35.7213 22.5571C35.4785 22.7916 35.2666 22.9154 34.9264 22.9294C34.5809 22.9162 34.3328 22.7974 34.0782 22.5581C33.8572 22.267 33.7951 21.9789 33.8236 21.6161C33.9188 21.2444 34.0637 20.9847 34.3838 20.7788C34.7592 20.5982 35.1448 20.6343 35.5041 20.8312Z" fill="#382507"/>
<path d="M22.4143 20.8322C22.7038 21.1012 22.8702 21.3503 22.8902 21.7527C22.8817 22.0782 22.8051 22.3527 22.5749 22.5864C22.3295 22.7848 22.1039 22.8865 21.7925 22.9294C21.4831 22.8925 21.2164 22.7742 20.9961 22.545C20.746 22.2164 20.6965 21.9191 20.7391 21.5064C20.8458 21.1334 21.0964 20.8993 21.4181 20.709C21.7582 20.6263 22.1115 20.6422 22.4143 20.8322Z" fill="#382507"/>
<path d="M35.5041 20.8312C35.7589 21.0394 35.9337 21.306 35.9803 21.6401C35.9917 21.9865 35.9482 22.2908 35.7213 22.5571C35.4785 22.7916 35.2666 22.9154 34.9264 22.9294C34.5809 22.9162 34.3328 22.7974 34.0782 22.5581C33.8572 22.267 33.7951 21.9789 33.8236 21.6161C33.9188 21.2444 34.0637 20.9847 34.3838 20.7788C34.7592 20.5982 35.1448 20.6343 35.5041 20.8312Z" fill="#382507"/>
<path d="M47.2912 59.1875C47.4327 59.1871 47.4327 59.1871 47.577 59.1866C47.7245 59.1878 47.7245 59.1878 47.875 59.1891C47.9726 59.1883 48.0701 59.1875 48.1706 59.1866C49.1294 59.1893 49.1294 59.1893 49.4857 59.421C49.5985 59.6086 49.5985 59.6086 49.5888 59.8333C49.3652 60.111 49.1145 60.3459 48.8576 60.5928C48.6278 60.852 48.6278 60.852 48.6707 61.1871C48.7541 61.4988 48.7541 61.4988 48.9703 61.7919C49.4229 61.9857 49.7886 62.0379 50.2524 61.8693C50.519 61.6992 50.519 61.6992 50.7227 61.4827C50.9933 61.5214 50.9933 61.5214 51.2382 61.5858C51.3155 61.8113 51.3155 61.8113 51.3413 62.1012C51.0815 62.6084 50.6702 62.7695 50.1578 62.9541C49.4929 63.1458 48.957 63.0112 48.3518 62.7197C48.0941 62.5458 48.0941 62.5458 47.9395 62.4105C47.8278 62.5061 47.8278 62.5061 47.714 62.6037C47.162 63.0208 46.6619 63.1211 45.9808 63.029C45.4404 62.8501 44.9865 62.5585 44.6407 62.1012C44.6601 61.8113 44.6601 61.8113 44.7438 61.5858C44.9693 61.5085 44.9693 61.5085 45.2593 61.4827C45.4319 61.619 45.6037 61.7566 45.7747 61.895C46.193 62.0091 46.4202 62.0245 46.8313 61.8821C47.1454 61.668 47.2886 61.5288 47.424 61.1734C47.3597 60.766 47.1333 60.5687 46.8442 60.2972C46.5042 59.9721 46.5042 59.9721 46.4318 59.6465C46.5592 59.2007 46.8875 59.1885 47.2912 59.1875Z" fill="#FAFAFA"/>
<path d="M44.4348 55.504C44.8833 55.7325 45.2019 56.002 45.4657 56.4318C45.5528 56.7851 45.6342 57.1256 45.4657 57.4626C45.2015 57.5142 45.2015 57.5142 44.8472 57.4626C44.6453 57.2608 44.4793 57.0495 44.312 56.8183C44.1366 56.6132 44.1366 56.6132 43.8626 56.6009C43.4227 56.6655 43.1781 56.9467 42.9079 57.2822C42.8675 57.3418 42.8271 57.4013 42.7855 57.4626C42.6154 57.4286 42.4453 57.3946 42.27 57.3595C42.1322 56.9804 42.1632 56.8523 42.3345 56.4769C42.8294 55.6918 43.5324 55.3769 44.4348 55.504Z" fill="#F9F9F9"/>
<path d="M52.6818 55.607C53.1607 55.8492 53.5209 56.0977 53.8286 56.5412C53.9254 56.8664 53.9192 57.0396 53.8157 57.3594C53.6456 57.3934 53.4755 57.4275 53.3003 57.4625C53.2429 57.3838 53.1855 57.3052 53.1263 57.2241C52.885 56.9437 52.7101 56.786 52.3725 56.6378C52.1116 56.6056 52.1116 56.6056 51.8571 56.7409C51.7524 56.8601 51.6518 56.983 51.5543 57.1081C51.2801 57.4571 51.2801 57.4571 50.8907 57.5076C50.7567 57.4853 50.7567 57.4853 50.6201 57.4625C50.4723 57.1671 50.4854 56.9664 50.517 56.6378C50.906 55.8091 51.7874 55.2697 52.6818 55.607Z" fill="#FAFAFA"/>
<path d="M77.5853 23.208V15.5539H80.0655V34.2224H77.5853V25.5549H71.0246V34.2224H68.5444V15.5539H71.0246V23.208H77.5853ZM95.6198 34.2224H92.7395L91.2993 28.7819H86.4188L85.0054 34.2224H82.2584L87.2723 15.5539H90.4993L95.6198 34.2224ZM87.0322 26.1949H90.7393L88.8724 18.8609L87.0322 26.1949ZM103.714 15.5539C104.461 15.5539 105.172 15.6517 105.847 15.8473C106.541 16.0428 107.145 16.3806 107.661 16.8607C108.194 17.3407 108.612 17.9986 108.914 18.8342C109.217 19.6521 109.368 20.6922 109.368 21.9545C109.368 23.288 109.217 24.3903 108.914 25.2615C108.63 26.1149 108.221 26.7817 107.688 27.2617C107.172 27.7418 106.576 28.0796 105.901 28.2752C105.225 28.4707 104.496 28.5685 103.714 28.5685H100.22V34.2224H97.74V15.5539H103.714ZM100.22 26.1949H103.02C103.661 26.1949 104.221 26.1505 104.701 26.0616C105.181 25.9727 105.581 25.786 105.901 25.5015C106.221 25.1993 106.461 24.7726 106.621 24.2214C106.799 23.6525 106.888 22.8968 106.888 21.9545C106.888 21.0833 106.799 20.3899 106.621 19.8743C106.461 19.3409 106.221 18.9409 105.901 18.6742C105.581 18.3897 105.181 18.203 104.701 18.1141C104.221 18.0253 103.661 17.9808 103.02 17.9808H100.22V26.1949ZM117.491 15.5539C118.238 15.5539 118.949 15.6517 119.625 15.8473C120.318 16.0428 120.923 16.3806 121.438 16.8607C121.972 17.3407 122.39 17.9986 122.692 18.8342C122.994 19.6521 123.145 20.6922 123.145 21.9545C123.145 23.288 122.994 24.3903 122.692 25.2615C122.407 26.1149 121.998 26.7817 121.465 27.2617C120.949 27.7418 120.354 28.0796 119.678 28.2752C119.003 28.4707 118.274 28.5685 117.491 28.5685H113.998V34.2224H111.517V15.5539H117.491ZM113.998 26.1949H116.798C117.438 26.1949 117.998 26.1505 118.478 26.0616C118.958 25.9727 119.358 25.786 119.678 25.5015C119.998 25.1993 120.238 24.7726 120.398 24.2214C120.576 23.6525 120.665 22.8968 120.665 21.9545C120.665 21.0833 120.576 20.3899 120.398 19.8743C120.238 19.3409 119.998 18.9409 119.678 18.6742C119.358 18.3897 118.958 18.203 118.478 18.1141C117.998 18.0253 117.438 17.9808 116.798 17.9808H113.998V26.1949ZM137.079 30.0353C137.079 31.4044 136.786 32.48 136.199 33.2623C135.63 34.0268 134.714 34.4802 133.452 34.6225L132.705 32.8089C132.99 32.7378 133.247 32.64 133.479 32.5156C133.727 32.3733 133.932 32.1955 134.092 31.9822C134.252 31.7511 134.376 31.4666 134.465 31.1288C134.554 30.791 134.599 30.3909 134.599 29.9287V27.2617C134.279 27.564 133.914 27.804 133.505 27.9818C133.096 28.1596 132.661 28.284 132.198 28.3552C131.754 28.4263 131.301 28.4618 130.838 28.4618C129.7 28.4618 128.705 28.2307 127.851 27.7684C126.998 27.3062 126.34 26.6572 125.878 25.8216C125.415 24.9859 125.184 23.9814 125.184 22.8079V15.5539H127.665V22.6746C127.665 23.4391 127.798 24.0881 128.065 24.6215C128.331 25.1371 128.731 25.5282 129.265 25.7949C129.798 26.0616 130.465 26.1949 131.265 26.1949C131.674 26.1949 132.074 26.1327 132.465 26.0083C132.874 25.866 133.238 25.6705 133.559 25.4215C133.879 25.1548 134.127 24.8437 134.305 24.4881C134.501 24.1147 134.599 23.6969 134.599 23.2347V15.5539H137.079V30.0353ZM74.5183 47.5539C75.265 47.5539 75.9762 47.6517 76.6518 47.8473C77.3452 48.0428 77.9497 48.3806 78.4654 48.8607C78.9987 49.3407 79.4166 49.9986 79.7188 50.8342C80.0211 51.6521 80.1722 52.6922 80.1722 53.9545C80.1722 55.288 80.0211 56.3903 79.7188 57.2615C79.4343 58.1149 79.0254 58.7817 78.492 59.2617C77.9764 59.7418 77.3808 60.0796 76.7052 60.2752C76.0296 60.4707 75.3006 60.5685 74.5183 60.5685H71.0246V66.2224H68.5444V47.5539H74.5183ZM71.0246 58.1949H73.8249C74.465 58.1949 75.025 58.1505 75.5051 58.0616C75.9851 57.9727 76.3851 57.786 76.7052 57.5015C77.0252 57.1993 77.2652 56.7726 77.4252 56.2214C77.603 55.6525 77.6919 54.8968 77.6919 53.9545C77.6919 53.0833 77.603 52.3899 77.4252 51.8743C77.2652 51.3409 77.0252 50.9409 76.7052 50.6742C76.3851 50.3897 75.9851 50.203 75.5051 50.1141C75.025 50.0253 74.465 49.9808 73.8249 49.9808H71.0246V58.1949ZM93.1456 66.2224H90.2653L88.8251 60.7819H83.9446L82.5312 66.2224H79.7842L84.7981 47.5539H88.025L93.1456 66.2224ZM84.558 58.1949H88.2651L86.3982 50.8609L84.558 58.1949ZM101.902 47.5539L104.782 61.1019L107.369 47.5539H110.143L106.302 66.2224H103.342L100.862 54.5946L98.435 66.2224H95.3947L91.5277 47.5539H94.248L96.9682 61.1019L99.8218 47.5539H101.902ZM121 50.3542C120.644 50.1764 120.271 50.0341 119.88 49.9275C119.489 49.803 119.089 49.7141 118.68 49.6608C118.289 49.6074 117.889 49.5808 117.48 49.5808C117.124 49.5808 116.742 49.6163 116.333 49.6874C115.942 49.7586 115.559 49.883 115.186 50.0608C114.83 50.2208 114.537 50.452 114.306 50.7542C114.075 51.0565 113.959 51.4298 113.959 51.8743C113.959 52.301 114.093 52.6833 114.359 53.0211C114.626 53.3589 114.982 53.6612 115.426 53.9279C115.871 54.1946 116.368 54.4524 116.92 54.7013C117.489 54.9324 118.075 55.1813 118.68 55.448C119.284 55.7147 119.862 56.017 120.413 56.3548C120.982 56.6748 121.489 57.0571 121.933 57.5015C122.378 57.9283 122.733 58.435 123 59.0217C123.267 59.6084 123.4 60.2929 123.4 61.0752C123.4 62.0353 123.222 62.8621 122.867 63.5555C122.511 64.2489 122.022 64.8178 121.4 65.2623C120.778 65.7068 120.075 66.0268 119.293 66.2224C118.511 66.4358 117.693 66.5424 116.84 66.5424C116.057 66.5424 115.284 66.4358 114.519 66.2224C113.773 66.0268 113.061 65.7335 112.386 65.3423C111.728 64.9512 111.132 64.4533 110.599 63.8488L112.012 62.222C112.386 62.6487 112.839 63.0132 113.373 63.3155C113.924 63.6177 114.493 63.8488 115.079 64.0089C115.684 64.1511 116.271 64.2222 116.84 64.2222C117.337 64.2222 117.817 64.16 118.28 64.0355C118.742 63.9111 119.16 63.7244 119.533 63.4755C119.924 63.2088 120.227 62.8799 120.44 62.4887C120.653 62.0798 120.76 61.5908 120.76 61.0219C120.76 60.5063 120.627 60.0529 120.36 59.6618C120.111 59.2706 119.764 58.9239 119.32 58.6217C118.875 58.3194 118.369 58.0438 117.8 57.7949C117.248 57.5282 116.68 57.2704 116.093 57.0215C115.506 56.7548 114.937 56.4703 114.386 56.1681C113.835 55.8658 113.337 55.5191 112.893 55.128C112.448 54.7368 112.092 54.2835 111.826 53.7678C111.559 53.2345 111.426 52.6211 111.426 51.9277C111.426 51.0742 111.603 50.3542 111.959 49.7674C112.332 49.1807 112.821 48.7096 113.426 48.354C114.03 47.9806 114.688 47.7139 115.399 47.5539C116.111 47.3761 116.813 47.2872 117.506 47.2872C117.986 47.2872 118.466 47.3228 118.946 47.3939C119.426 47.465 119.898 47.5717 120.36 47.7139C120.84 47.8561 121.284 48.0428 121.693 48.274L121 50.3542Z" fill="black"/>
</svg>
