<svg width="100" height="100" viewBox="0 0 100 100" fill="none" xmlns="http://www.w3.org/2000/svg">
<path d="M42.7593 5.00555C43.0651 5.00526 43.3707 5.00281 43.6765 5.00025C45.5269 4.99297 47.358 5.14141 49.1596 5.58647C49.2764 5.6151 49.3932 5.64374 49.5136 5.67324C51.5613 6.19702 53.4949 6.93421 55.3356 7.9754C55.4341 8.0307 55.5326 8.086 55.634 8.14298C55.7196 8.19258 55.8052 8.24218 55.8934 8.29328C56.18 8.43523 56.18 8.43523 56.6817 8.39989C56.8818 8.26646 56.8818 8.26646 57.086 8.13034C60.1197 8.18758 62.9721 10.5648 65.0377 12.5779C65.1237 12.6611 65.2096 12.7443 65.2981 12.8299C66.4072 13.9072 67.4561 14.9953 68.4071 16.2168C68.5287 16.3656 68.6507 16.514 68.773 16.6622C71.8316 20.3858 75.6956 25.292 75.4154 30.3681C75.2099 31.9669 74.5251 33.8772 73.259 34.9505C72.0765 35.8191 70.8193 36.2092 69.3505 36.0287C67.8121 35.6178 66.607 34.5937 65.7649 33.2604C65.5468 32.8734 65.3406 32.4824 65.1388 32.0865C65.0635 31.9398 64.9882 31.7931 64.9107 31.642C63.6949 29.2205 62.8088 26.6623 61.9138 24.1097C61.4769 22.8639 61.0247 21.6254 60.5455 20.3953C60.4488 20.1468 60.3528 19.8979 60.2569 19.6491C60.1985 19.5008 60.1402 19.3525 60.08 19.1998C60.0288 19.069 59.9775 18.9382 59.9247 18.8034C59.8085 18.4873 59.8085 18.4873 59.512 18.3732C59.5235 18.496 59.535 18.6187 59.5469 18.7452C59.6561 19.9088 59.7651 21.0725 59.874 22.2362C59.93 22.8343 59.986 23.4324 60.0421 24.0305C60.0965 24.609 60.1506 25.1875 60.2047 25.766C60.2252 25.9854 60.2458 26.2047 60.2664 26.4241C60.6099 30.0778 60.6099 30.0778 60.6175 31.7343C60.6183 31.8697 60.6191 32.005 60.6199 32.1445C60.6211 32.4284 60.622 32.7123 60.6225 32.9962C60.6238 33.4226 60.628 33.8489 60.6323 34.2753C60.6497 37.6149 60.2432 41.0044 57.861 43.5592C55.9583 45.3287 53.7288 45.726 51.2212 45.6493C49.2772 45.5433 47.4992 44.747 46.1693 43.3065C45.0462 41.8344 44.4465 40.247 44.5462 38.3851C44.6333 37.7939 44.8452 37.5201 45.3151 37.163C45.6518 36.9453 45.9942 36.745 46.3479 36.5564C47.4434 35.9576 48.2512 34.8496 48.7216 33.7122C48.9054 33.0527 48.977 32.5495 48.73 31.9012C48.053 31.0973 47.1868 30.7802 46.1693 30.6377C46.0871 30.6262 46.0049 30.6147 45.9202 30.6028C43.5704 30.3053 40.2788 30.059 38.2176 31.4463C37.8412 31.8697 37.6971 32.1342 37.6111 32.693C37.8309 34.3413 38.8196 35.5127 40.0297 36.5846C40.4194 36.8706 40.8216 37.0529 41.2584 37.2585C41.6722 37.4896 41.6722 37.4896 41.9913 37.7807C42.1721 38.4331 42.1004 39.0059 41.9913 39.6676C41.9689 39.8094 41.9464 39.9511 41.9234 40.0972C41.5595 41.8548 40.5823 43.4046 39.0678 44.3997C37.6036 45.2628 36.0919 45.6747 34.3934 45.6566C34.2579 45.6556 34.1224 45.6546 33.9828 45.6535C31.9478 45.6085 30.1478 44.8723 28.6565 43.466C26.5873 41.2712 25.9488 38.2627 25.921 35.3359C25.9197 35.2195 25.9184 35.1032 25.917 34.9834C25.9136 34.6018 25.912 34.2202 25.911 33.8386C25.9106 33.7058 25.9103 33.573 25.9099 33.4361C25.9092 30.8069 26.1069 28.2164 26.3748 25.6026C26.5169 24.2157 26.6381 22.8271 26.7594 21.4382C26.8164 20.7876 26.8744 20.1372 26.9323 19.4867C26.9517 19.269 26.971 19.0514 26.9904 18.8337C27.0039 18.6817 27.0174 18.5298 27.0313 18.3732C26.6456 18.5661 26.6173 18.7993 26.4574 19.1971C26.366 19.4243 26.366 19.4243 26.2726 19.6561C26.2054 19.8265 26.1382 19.9969 26.071 20.1674C26.0364 20.2544 26.0017 20.3413 25.9661 20.4309C25.3419 21.9989 24.7667 23.5835 24.1967 25.1718C20.9335 34.259 20.9335 34.259 18.0014 35.7591C16.8158 36.2297 15.6642 36.0962 14.4873 35.667C12.8885 34.9477 12.0142 33.5662 11.3974 31.9775C10.5258 29.4138 11.1992 27.0574 12.3409 24.7076C12.4152 24.5518 12.4896 24.3959 12.5662 24.2354C14.2816 20.8387 16.71 17.7203 19.2144 14.8691C19.3574 14.7036 19.3574 14.7036 19.5034 14.5348C22.0424 11.6472 25.0004 8.88435 28.9181 8.14719C29.3461 8.12935 29.4976 8.19911 29.8616 8.39989C30.2914 8.32991 30.6458 8.157 31.0319 7.96082C34.7581 6.1008 38.5784 5.00511 42.7593 5.00555Z" fill="#382507"/>
<path d="M60.2633 56.1748C60.9711 56.2821 61.3003 56.7227 61.778 57.2304C61.8733 57.3287 61.9685 57.4271 62.0667 57.5284C62.6778 58.1658 63.2587 58.8185 63.7996 59.5168C63.9455 59.6984 63.9455 59.6984 64.0944 59.8837C64.1631 59.9818 64.2318 60.0799 64.3026 60.1809C64.807 60.8413 64.807 60.8413 65.5331 61.2028C65.9533 61.2346 66.3578 61.2298 66.7788 61.2104C67.0081 61.2074 67.0081 61.2074 67.2421 61.2043C67.729 61.1966 68.2153 61.1806 68.702 61.1641C69.1862 61.1533 69.6705 61.1442 70.1547 61.1355C70.4551 61.1295 70.7554 61.1219 71.0557 61.1126C71.9509 61.0873 72.8158 61.1281 73.7062 61.2273C74.0969 61.2668 74.0969 61.2668 74.4552 60.9619C74.5497 60.8285 74.6442 60.6951 74.7416 60.5576C74.8909 60.4065 75.0427 60.2578 75.1965 60.1112C75.6085 59.6991 75.9937 59.2695 76.3747 58.8287C76.7593 58.3851 77.1496 57.9471 77.5455 57.5136C77.7323 57.3083 77.916 57.1001 78.0952 56.8882C78.2114 56.7573 78.2114 56.7573 78.33 56.6239C78.3956 56.5469 78.4613 56.47 78.529 56.3907C78.7848 56.2448 78.7848 56.2448 79.2508 56.2185C79.7634 56.3914 79.8021 56.4092 80.0278 56.8582C80.1148 57.0704 80.1972 57.2845 80.2758 57.4999C80.3205 57.6146 80.3652 57.7293 80.4112 57.8474C81.2883 60.1502 81.9356 62.5379 82.239 64.9862C82.4209 66.4366 82.7555 67.7516 83.2502 69.1299C83.7876 70.631 83.9374 71.9102 83.9063 73.496C84.0144 73.4939 84.1225 73.4917 84.2339 73.4896C84.7227 73.4812 85.2116 73.4759 85.7005 73.4707C85.8706 73.4673 86.0408 73.4639 86.2161 73.4604C86.379 73.4591 86.5419 73.4578 86.7097 73.4565C86.86 73.4544 87.0103 73.4523 87.1652 73.4501C87.5452 73.496 87.5452 73.496 87.7969 73.679C88.0119 73.9908 87.9969 74.2043 87.9495 74.5742C87.5736 74.9501 87.2944 74.9721 86.7704 74.9938C86.632 74.9931 86.4937 74.9924 86.3512 74.9917C86.2009 74.9912 86.0506 74.9908 85.8958 74.9903C85.7396 74.9892 85.5834 74.9881 85.4225 74.9869C85.2642 74.9863 85.1059 74.9857 84.9429 74.9851C84.5524 74.9835 84.162 74.9813 83.7715 74.9785C83.7552 75.0695 83.7388 75.1606 83.722 75.2544C83.6881 75.4347 83.6881 75.4347 83.6536 75.6187C83.6207 75.7969 83.6207 75.7969 83.5872 75.9788C83.5063 76.3086 83.3968 76.5696 83.2324 76.8653C83.3657 76.8639 83.499 76.8625 83.6364 76.8611C84.1302 76.8562 84.624 76.8531 85.1178 76.8505C85.3317 76.8492 85.5455 76.8473 85.7594 76.845C86.0665 76.8417 86.3736 76.8402 86.6807 76.839C86.7766 76.8376 86.8725 76.8362 86.9713 76.8348C87.2077 76.8347 87.4441 76.8489 87.68 76.8653C87.9495 77.1349 87.9495 77.1349 88 77.4634C87.9495 77.8088 87.9495 77.8088 87.7438 78.032C87.2772 78.2854 86.8538 78.2444 86.3391 78.2205C86.1252 78.2169 85.9114 78.2137 85.6976 78.211C85.3624 78.2049 85.0282 78.1963 84.6934 78.1803C83.4538 78.0824 83.4538 78.0824 82.3423 78.518C82.0224 78.8752 81.8088 79.244 81.5801 79.6669C81.3504 80.091 81.1234 80.3402 80.7728 80.6643C80.5374 80.9057 80.5374 80.9057 80.4021 81.1781C80.423 81.4689 80.423 81.4689 80.5427 81.7693C80.583 81.888 80.6233 82.0067 80.6649 82.1289C80.7116 82.2599 80.7583 82.3909 80.8064 82.5259C80.9052 82.8223 81.0036 83.1189 81.1018 83.4156C81.2621 83.8914 81.423 84.3669 81.5843 84.8423C82.3951 87.2516 82.3951 87.2516 82.1542 87.9169C79.8211 91.5092 73.2001 93.0328 69.2958 93.8792C65.0303 94.7768 60.5009 95.3165 56.1427 95.1947C56.1009 93.976 56.2203 92.8243 56.4207 91.6231C56.4355 91.5332 56.4503 91.4432 56.4656 91.3505C56.9507 88.4333 57.7084 85.6285 58.7145 82.8475C58.7592 82.7212 58.804 82.5948 58.8501 82.4646C58.9255 82.2541 59.0037 82.0446 59.0866 81.8369C59.1932 81.5689 59.1932 81.5689 59.2425 81.1781C59.0455 80.8249 59.0455 80.8249 58.7118 80.5379C58.3409 80.1837 58.0761 79.9266 57.8509 79.4608C57.631 79.0199 57.4378 78.6949 57.0861 78.3479C56.3772 78.1509 55.6906 78.1759 54.9634 78.2047C54.6759 78.2095 54.3884 78.2123 54.1009 78.214C53.8414 78.2166 53.582 78.2244 53.3226 78.2325C52.9081 78.2131 52.9081 78.2131 52.5038 77.9435C52.4448 77.615 52.4448 77.615 52.5038 77.2697C52.8061 76.9708 52.9887 76.8721 53.4134 76.8194C53.5517 76.8216 53.6901 76.8237 53.8326 76.8258C53.9829 76.8272 54.1331 76.8285 54.288 76.8298C54.4442 76.8332 54.6003 76.8366 54.7613 76.8401C54.9195 76.8419 55.0778 76.8437 55.2409 76.8456C55.6314 76.8504 56.0218 76.857 56.4123 76.8653C56.3733 76.7743 56.3344 76.6833 56.2943 76.5895C56.2193 76.4091 56.2193 76.4091 56.1427 76.2252C56.0676 76.0469 56.0676 76.0469 55.9911 75.8651C55.8732 75.5176 55.8732 75.5176 55.8732 74.9785C55.7488 74.9817 55.7488 74.9817 55.6219 74.9849C55.2452 74.9933 54.8685 74.9986 54.4917 75.0038C54.3612 75.0071 54.2308 75.0105 54.0963 75.014C53.9074 75.016 53.9074 75.016 53.7147 75.018C53.5989 75.0201 53.4832 75.0222 53.3639 75.0244C52.9712 74.9682 52.789 74.8458 52.5038 74.5742C52.4364 74.2372 52.4364 74.2372 52.5038 73.9003C52.7508 73.6146 52.9516 73.5063 53.3272 73.4639C53.6713 73.4561 54.0129 73.4608 54.3569 73.4707C54.5365 73.4734 54.5365 73.4734 54.7197 73.4762C55.0144 73.481 55.309 73.4876 55.6036 73.496C55.5989 73.3929 55.5942 73.2899 55.5894 73.1838C55.5348 71.0231 56.1306 69.0095 56.9513 67.0268C56.9958 66.9823 57.0403 66.9378 57.0861 66.892C57.12 66.663 57.1461 66.4328 57.1688 66.2023C57.1838 66.0579 57.1987 65.9134 57.2142 65.7645C57.2303 65.6085 57.2464 65.4524 57.263 65.2916C57.5009 63.1542 57.8922 61.171 58.5602 59.1256C58.6039 58.9914 58.6475 58.8572 58.6925 58.7189C59.5046 56.3279 59.5046 56.3279 60.2633 56.1748Z" fill="#382507"/>
<path d="M24.7402 42.363C24.8291 42.363 24.9181 42.363 25.0097 42.363C25.054 42.4528 25.0984 42.5426 25.144 42.6352C26.4815 45.2267 28.541 46.8995 31.3105 47.7961C34.1418 48.6026 37.3032 48.199 39.8771 46.7768C40.9336 46.1227 41.8393 45.2986 42.6178 44.3314C42.8433 44.0636 43.0893 43.821 43.3391 43.5759C43.4225 43.7031 43.4225 43.7031 43.5076 43.8329C45.1011 46.1947 47.2892 47.4765 50.0778 48.0235C50.4829 48.0827 50.8826 48.1243 51.2908 48.1583C51.3366 48.453 51.3813 48.7478 51.4256 49.0427C51.4506 49.2069 51.4756 49.3711 51.5014 49.5402C51.5589 50.0324 51.5915 50.4939 51.5603 50.9885C51.2655 51.2665 51.2655 51.2665 50.8865 51.3929C50.5748 51.3171 50.5748 51.3171 50.2126 51.1233C50.036 51.0328 49.8591 50.943 49.6819 50.8538C49.5973 50.8093 49.5127 50.7648 49.4255 50.719C46.8873 49.544 44.3081 50.6243 41.866 51.5001C40.1424 52.1158 38.4028 52.6848 36.6659 53.2614C36.0537 53.4646 35.4418 53.6687 34.83 53.873C32.3092 54.7141 29.7859 55.5467 27.2553 56.3579C25.3809 56.8021 25.3809 56.8021 23.9316 57.8621C23.894 58.1563 23.894 58.1563 23.9063 58.4685C23.9071 58.5728 23.908 58.677 23.9089 58.7844C23.9217 59.0998 23.9217 59.0998 24.0663 59.4793C24.9105 59.6359 25.4733 59.5771 26.2801 59.3035C26.3916 59.2676 26.5032 59.2317 26.6181 59.1948C26.9953 59.0728 27.3713 58.9476 27.7474 58.8223C28.0195 58.7334 28.2916 58.6447 28.5638 58.5561C29.3533 58.2982 30.1416 58.037 30.9296 57.775C31.5207 57.5785 32.112 57.3829 32.7033 57.1872C34.7727 56.5022 36.8414 55.815 38.9087 55.1237C39.1134 55.0553 39.3182 54.987 39.523 54.9187C40.5861 54.5644 41.6464 54.2047 42.7009 53.8255C42.8781 53.7623 43.0554 53.6991 43.2327 53.636C43.5563 53.5201 43.8793 53.4026 44.2014 53.2828C45.4167 52.849 46.704 52.5126 47.9635 52.9428C49.7048 53.7698 50.8208 55.4696 51.5603 57.1882C51.6294 57.3451 51.6294 57.3451 51.6999 57.5051C52.1884 58.8275 52.1958 60.6935 51.7088 62.018C50.8713 63.6633 49.4748 64.6305 47.7867 65.2747C46.3663 65.6431 44.9371 65.4565 43.6086 64.8703C43.4752 64.7814 43.3418 64.6924 43.2043 64.6008C42.4862 64.6246 42.0005 64.9484 41.4296 65.3484C41.3358 65.4123 41.242 65.4763 41.1454 65.5422C40.834 65.755 40.5241 65.9697 40.214 66.1844C39.9941 66.3351 39.7741 66.4856 39.5541 66.636C39.0846 66.9569 38.6156 67.2784 38.1468 67.6002C37.0226 68.3706 35.8911 69.1301 34.7603 69.8908C33.1356 70.9841 31.5122 72.0794 29.8953 73.1842C29.6737 73.3353 29.452 73.4864 29.2304 73.6375C28.8542 73.8941 28.4792 74.1522 28.1048 74.4114C25.6657 76.0885 22.8913 77.56 19.8883 77.8087C19.7778 77.8181 19.6673 77.8274 19.5535 77.8371C17.8271 77.9086 16.1606 77.3399 14.8174 76.2672C13.3488 74.8844 12.5458 72.7211 12.454 70.7351C12.3516 61.3828 16.5221 54.3809 21.6404 46.8105C21.7336 46.6726 21.8268 46.5347 21.9228 46.3926C22.4083 45.6753 22.8984 44.9613 23.3925 44.2498C23.4578 44.1551 23.5231 44.0605 23.5903 43.9629C23.7789 43.69 23.9687 43.418 24.159 43.1464C24.2144 43.0661 24.2697 42.9858 24.3268 42.903C24.4578 42.718 24.5981 42.5396 24.7402 42.363Z" fill="#382507"/>
<path d="M52.5038 65.2747C52.673 66.6188 52.6774 67.9703 52.6858 69.3229C52.688 69.5911 52.6917 69.8593 52.6968 70.1275C52.7042 70.5175 52.7072 70.9074 52.7091 71.2975C52.7122 71.4175 52.7153 71.5375 52.7184 71.6612C52.7173 71.9728 52.7117 72.2495 52.6386 72.5525C52.3125 72.8105 52.3125 72.8105 51.9647 72.9569C51.5296 73.6021 51.4886 74.0901 51.5604 74.8437C51.7332 75.2141 51.7332 75.2141 51.9647 75.5176C52.0565 75.6963 52.1471 75.8757 52.2343 76.0567C52.1481 76.1623 52.0619 76.2679 51.9731 76.3768C51.4963 76.9836 51.4885 77.4588 51.5604 78.2131C51.6991 78.6054 51.6991 78.6054 51.9647 78.887C52.0794 78.9285 52.194 78.9701 52.3121 79.0129C52.6386 79.2913 52.6386 79.2913 52.6998 79.5815C52.7221 79.9881 52.7218 80.3899 52.7151 80.7971C52.7152 80.9522 52.7153 81.1074 52.7154 81.2673C52.7149 81.7815 52.7097 82.2955 52.7044 82.8096C52.7031 83.1656 52.7022 83.5216 52.7015 83.8776C52.6994 84.7196 52.6939 85.5615 52.6871 86.4035C52.6796 87.3621 52.6759 88.3206 52.6725 89.2792C52.6655 91.2511 52.6536 93.2229 52.6386 95.1947C51.6151 95.1988 50.5916 95.2016 49.5681 95.2035C49.2212 95.2043 48.8743 95.2053 48.5274 95.2067C38.6772 95.2455 26.4762 94.2083 19.0608 86.9624C17.5253 85.4142 16.3308 83.5491 15.7104 81.4477C15.6803 81.3481 15.6502 81.2486 15.6193 81.146C15.4693 80.6043 15.4314 80.1197 15.4408 79.5608C15.5718 79.6095 15.7028 79.6581 15.8378 79.7082C19.3165 80.9139 22.7926 80.08 26.02 78.5197C27.7551 77.6363 29.3493 76.499 30.9399 75.3828C31.3185 75.1181 31.6974 74.8537 32.0764 74.5895C32.3291 74.4133 32.5817 74.2368 32.8339 74.06C33.7052 73.4515 34.5865 72.8594 35.4714 72.2711C36.6827 71.4657 37.889 70.6528 39.0951 69.8395C39.4873 69.575 39.8796 69.3108 40.272 69.0466C40.5233 68.8771 40.7746 68.7077 41.0259 68.5383C41.2004 68.4208 41.2004 68.4208 41.3785 68.3009C41.4867 68.2279 41.5948 68.1549 41.7063 68.0797C41.8007 68.016 41.8951 67.9524 41.9924 67.8868C42.2685 67.7002 42.2685 67.7002 42.5446 67.472C42.8001 67.2963 42.8001 67.2963 43.1286 67.3406C43.2425 67.3816 43.3565 67.4226 43.4739 67.4648C43.5879 67.5044 43.7019 67.544 43.8193 67.5848C43.9277 67.6231 44.0361 67.6613 44.1478 67.7007C46.2329 68.3048 48.5744 67.7945 50.4303 66.7941C51.0774 66.4257 51.6271 65.9932 52.1616 65.4727C52.369 65.2747 52.369 65.2747 52.5038 65.2747Z" fill="#382507"/>
<path d="M78.2709 38.1851C79.4633 39.0331 80.1229 40.3669 80.84 41.605C81.0105 41.8964 81.1813 42.1875 81.3522 42.4786C81.4643 42.6699 81.5764 42.8612 81.6883 43.0525C82.174 43.8827 82.6729 44.7043 83.1803 45.5213C83.4638 45.98 83.7395 46.4426 84.0072 46.9107C84.0632 47.0084 84.1191 47.106 84.1768 47.2065C84.388 47.6458 84.4002 47.9525 84.3105 48.428C84.0409 48.8913 84.0409 48.8913 83.6366 49.2367C83.2558 49.3372 82.9367 49.347 82.5584 49.2367C81.991 48.8467 81.6596 48.4004 81.3212 47.8126C81.2706 47.7271 81.2199 47.6416 81.1677 47.5536C81.0067 47.2814 80.8475 47.0082 80.6884 46.7349C80.4786 46.3779 80.2682 46.0212 80.0577 45.6646C80.0068 45.5781 79.9558 45.4916 79.9033 45.4025C79.1441 43.976 79.1441 43.976 78.1109 42.7675C77.7682 42.7113 77.7682 42.7113 77.437 42.7675C77.3036 42.9009 77.3036 42.9009 77.1674 43.037C77.1993 43.7651 77.4266 44.2858 77.8081 44.8907C77.8848 45.0166 77.8848 45.0166 77.963 45.145C78.1259 45.412 78.291 45.6776 78.4562 45.9431C78.5635 46.1175 78.6706 46.292 78.7776 46.4667C78.8304 46.5528 78.8832 46.6389 78.9376 46.7276C79.1491 47.0734 79.3598 47.4196 79.5703 47.7659C79.6763 47.939 79.7834 48.1116 79.8913 48.2836C80.0483 48.5337 80.202 48.7857 80.3552 49.0382C80.4453 49.1836 80.5355 49.329 80.6284 49.4788C80.847 50.0091 80.818 50.3041 80.6716 50.8539C80.2584 51.3163 80.0035 51.5027 79.3912 51.6121C78.6545 51.4805 78.2509 51.0485 77.828 50.461C77.7019 50.2471 77.7019 50.2471 77.5733 50.029C77.5036 49.9123 77.5036 49.9123 77.4325 49.7932C77.2838 49.5439 77.1372 49.2934 76.9905 49.0429C76.838 48.7863 76.6849 48.5301 76.5318 48.2738C76.4318 48.1062 76.3319 47.9385 76.2321 47.7707C75.8608 47.1462 75.4808 46.5283 75.0869 45.9178C74.9981 45.7799 74.9093 45.6419 74.8178 45.4998C74.6145 45.1849 74.6145 45.1849 74.3372 44.9239C74.0002 44.8677 74.0002 44.8677 73.6633 44.9239C73.3562 45.2984 73.3562 45.2984 73.4095 45.6962C73.5534 46.2289 73.7971 46.6575 74.0845 47.1224C74.142 47.2183 74.1996 47.3143 74.259 47.4132C74.5479 47.8937 74.8413 48.3713 75.1357 48.8485C75.3202 49.1474 75.504 49.4467 75.6872 49.7464C75.8685 50.0426 76.0512 50.338 76.2354 50.6325C77.0327 51.9366 77.0327 51.9366 77.0327 52.7408C76.8487 53.2168 76.6744 53.384 76.2493 53.6674C75.7453 53.8452 75.5158 53.856 75.011 53.6842C74.3547 53.1259 73.9528 52.4375 73.5117 51.7047C73.4358 51.5807 73.3598 51.4566 73.2816 51.3288C72.9051 50.7129 72.5335 50.0943 72.165 49.4736C72.0993 49.3639 72.0337 49.2542 71.966 49.1412C71.8429 48.935 71.7208 48.7282 71.6 48.5206C71.2715 47.9709 70.9668 47.585 70.4287 47.215C70.0951 47.3485 70.0951 47.3485 69.7548 47.4846C69.6966 48.1876 69.8573 48.5642 70.2186 49.1629C70.267 49.2441 70.3153 49.3252 70.3651 49.4088C70.5194 49.667 70.6761 49.9235 70.833 50.1801C70.9337 50.3473 71.0342 50.5146 71.1346 50.6821C71.4333 51.1788 71.7352 51.6735 72.0376 52.168C72.1925 52.4217 72.3473 52.6754 72.502 52.9292C72.6397 53.1551 72.7777 53.3809 72.9157 53.6067C73.2301 54.1301 73.3304 54.4126 73.259 55.032C72.9808 55.5075 72.8168 55.7614 72.294 55.9401C71.768 56.027 71.5045 56.066 71.0493 55.7545C70.6589 55.4006 70.4317 55.0591 70.1644 54.6055C70.1168 54.5257 70.0691 54.4459 70.02 54.3637C69.8686 54.1098 69.719 53.855 69.5695 53.6C69.3726 53.2665 69.175 52.9334 68.9767 52.6008C68.9289 52.5203 68.881 52.4399 68.8317 52.3571C68.1649 51.2066 68.1649 51.2066 67.3289 50.1801C67.0145 50.1746 66.6999 50.1744 66.3855 50.1801C66.2281 50.7163 66.2313 50.945 66.4619 51.4636C66.5652 51.638 66.6709 51.811 66.7787 51.9827C66.8345 52.0753 66.8902 52.168 66.9477 52.2635C67.126 52.5587 67.3074 52.8519 67.4889 53.1451C67.6086 53.3422 67.728 53.5395 67.8472 53.7369C68.4633 54.7542 68.4633 54.7542 69.1135 55.7498C69.454 56.2675 69.4755 56.5712 69.4853 57.1884C69.2731 57.6764 69.1229 57.8343 68.6766 58.1318C68.0534 58.2149 67.6397 58.2289 67.1267 57.8454C66.5536 57.297 66.2103 56.5856 65.8343 55.8969C65.3003 54.9415 64.6405 53.9112 63.5552 53.5494C61.043 53.2703 59.0027 54.8781 56.9513 56.1102C56.6083 56.3151 56.265 56.5196 55.9214 56.7234C55.7252 56.8398 55.5294 56.9568 55.3341 57.0745C54.6902 57.4579 54.6902 57.4579 54.3905 57.4579C54.3642 57.3828 54.3379 57.3076 54.3108 57.2302C53.7242 55.5744 53.0717 54.0713 52.0994 52.606C52.6019 52.0232 53.2375 51.6838 53.8936 51.3004C54.1403 51.1544 54.387 51.0084 54.6338 50.8624C54.7545 50.7913 54.8752 50.7203 54.9995 50.647C55.4245 50.3961 55.8467 50.1408 56.269 49.8853C57.1825 49.335 58.1038 48.7982 59.0244 48.26C60.2802 47.5258 61.533 46.7883 62.7713 46.0247C64.2779 45.0979 65.8057 44.2058 67.3289 43.3066C67.693 43.0915 68.0571 42.8765 68.4212 42.6614C68.6537 42.5241 68.8863 42.3868 69.119 42.2497C69.7765 41.8618 70.4326 41.4719 71.0873 41.0793C71.4692 40.8505 71.8513 40.6221 72.2334 40.3938C72.4194 40.2825 72.6053 40.1709 72.791 40.059C76.7139 37.6967 76.7139 37.6967 78.2709 38.1851Z" fill="#382507"/>
<path d="M36.3307 22.4164C37.0994 23.1155 37.5411 23.7629 37.5942 24.8087C37.5716 25.6546 37.3682 26.3679 36.7572 26.9751C36.1056 27.4906 35.5065 27.7551 34.6797 27.8664C33.8584 27.7706 33.1504 27.4632 32.5655 26.8677C31.9014 26.0137 31.7701 25.241 31.8832 24.1685C32.1664 23.1994 32.8317 22.5908 33.6858 22.0964C34.5887 21.8814 35.5266 21.9229 36.3307 22.4164Z" fill="#FFFBFB"/>
<path d="M53.3125 22.4164C53.9868 22.9528 54.4497 23.6392 54.5728 24.4996C54.603 25.3919 54.488 26.1754 53.8874 26.8613C53.2448 27.4652 52.6841 27.784 51.7836 27.82C50.8693 27.7861 50.2126 27.48 49.5388 26.8639C48.9539 26.1143 48.7895 25.3723 48.8649 24.438C49.1167 23.4807 49.5003 22.8117 50.3474 22.2816C51.3411 21.8165 52.3617 21.9093 53.3125 22.4164Z" fill="#FFFBFB"/>
<path d="M36.3824 24.3916C36.7609 24.7433 36.9784 25.0691 37.0046 25.5952C36.9934 26.0208 36.8933 26.3797 36.5924 26.6851C36.2715 26.9445 35.9765 27.0776 35.5693 27.1336C35.1649 27.0853 34.8162 26.9307 34.5282 26.6311C34.2012 26.2015 34.1365 25.8127 34.1922 25.2731C34.3316 24.7855 34.6593 24.4794 35.0799 24.2306C35.5245 24.1224 35.9864 24.1433 36.3824 24.3916Z" fill="#382507"/>
<path d="M53.4962 24.3903C53.8293 24.6627 54.0579 25.0111 54.1188 25.4479C54.1337 25.9009 54.0768 26.2987 53.7801 26.6469C53.4627 26.9535 53.1857 27.1153 52.7409 27.1336C52.2893 27.1164 51.9649 26.961 51.632 26.6482C51.3431 26.2676 51.2619 25.891 51.2991 25.4166C51.4235 24.9307 51.613 24.591 52.0315 24.3219C52.5223 24.0858 53.0265 24.1329 53.4962 24.3903Z" fill="#382507"/>
<path d="M36.3824 24.3916C36.7609 24.7433 36.9784 25.0691 37.0046 25.5952C36.9934 26.0208 36.8933 26.3797 36.5924 26.6851C36.2715 26.9445 35.9765 27.0776 35.5693 27.1336C35.1649 27.0853 34.8162 26.9307 34.5282 26.6311C34.2012 26.2015 34.1365 25.8127 34.1922 25.2731C34.3316 24.7855 34.6593 24.4794 35.0799 24.2306C35.5245 24.1224 35.9864 24.1433 36.3824 24.3916Z" fill="#382507"/>
<path d="M53.4962 24.3903C53.8293 24.6627 54.0579 25.0111 54.1188 25.4479C54.1337 25.9009 54.0768 26.2987 53.7801 26.6469C53.4627 26.9535 53.1857 27.1153 52.7409 27.1336C52.2893 27.1164 51.9649 26.961 51.632 26.6482C51.3431 26.2676 51.2619 25.891 51.2991 25.4166C51.4235 24.9307 51.613 24.591 52.0315 24.3219C52.5223 24.0858 53.0265 24.1329 53.4962 24.3903Z" fill="#382507"/>
<path d="M36.3824 24.3916C36.7609 24.7433 36.9784 25.0691 37.0046 25.5952C36.9934 26.0208 36.8933 26.3797 36.5924 26.6851C36.2715 26.9445 35.9765 27.0776 35.5693 27.1336C35.1649 27.0853 34.8162 26.9307 34.5282 26.6311C34.2012 26.2015 34.1365 25.8127 34.1922 25.2731C34.3316 24.7855 34.6593 24.4794 35.0799 24.2306C35.5245 24.1224 35.9864 24.1433 36.3824 24.3916Z" fill="#382507"/>
<path d="M53.4962 24.3903C53.8293 24.6627 54.0579 25.0111 54.1188 25.4479C54.1337 25.9009 54.0768 26.2987 53.7801 26.6469C53.4627 26.9535 53.1857 27.1153 52.7409 27.1336C52.2893 27.1164 51.9649 26.961 51.632 26.6482C51.3431 26.2676 51.2619 25.891 51.2991 25.4166C51.4235 24.9307 51.613 24.591 52.0315 24.3219C52.5223 24.0858 53.0265 24.1329 53.4962 24.3903Z" fill="#382507"/>
<path d="M68.9072 74.5384C69.0922 74.5379 69.0922 74.5379 69.281 74.5374C69.4738 74.5389 69.4738 74.5389 69.6706 74.5405C69.7981 74.5395 69.9256 74.5384 70.057 74.5374C71.3106 74.5409 71.3106 74.5409 71.7764 74.8438C71.9238 75.0891 71.9238 75.0891 71.9112 75.3829C71.6188 75.7459 71.2911 76.053 70.9551 76.3758C70.6548 76.7146 70.6548 76.7146 70.7109 77.1528C70.8199 77.5603 70.8199 77.5603 71.1025 77.9436C71.6943 78.1969 72.1724 78.2651 72.7788 78.0447C73.1273 77.8223 73.1273 77.8223 73.3937 77.5392C73.7475 77.5898 73.7475 77.5898 74.0676 77.674C74.1687 77.9688 74.1687 77.9688 74.2024 78.3479C73.8627 79.011 73.325 79.2217 72.6551 79.4629C71.7858 79.7136 71.0852 79.5376 70.2939 79.1565C69.957 78.9291 69.957 78.9291 69.7548 78.7522C69.6089 78.8773 69.6089 78.8773 69.46 79.0049C68.7383 79.5502 68.0845 79.6813 67.1941 79.5609C66.4875 79.327 65.8941 78.9458 65.442 78.3479C65.4673 77.9688 65.4673 77.9688 65.5768 77.674C65.8716 77.5729 65.8716 77.5729 66.2507 77.5392C66.4764 77.7175 66.701 77.8973 66.9245 78.0783C67.4715 78.2275 67.7685 78.2475 68.306 78.0615C68.7166 77.7815 68.9039 77.5996 69.0809 77.1349C68.9968 76.6022 68.7008 76.3442 68.3228 75.9893C67.8783 75.5643 67.8783 75.5643 67.7837 75.1386C67.9503 74.5557 68.3795 74.5398 68.9072 74.5384Z" fill="#FAFAFA"/>
<path d="M65.1725 69.7223C65.7589 70.0211 66.1755 70.3734 66.5203 70.9353C66.6342 71.3972 66.7406 71.8425 66.5203 72.283C66.1749 72.3504 66.1749 72.3504 65.7116 72.283C65.4478 72.0192 65.2307 71.7428 65.012 71.4407C64.7826 71.1725 64.7826 71.1725 64.4244 71.1564C63.8492 71.2408 63.5295 71.6086 63.1762 72.0472C63.1234 72.125 63.0706 72.2028 63.0161 72.283C62.7938 72.2386 62.5714 72.1941 62.3423 72.1483C62.162 71.6526 62.2026 71.485 62.4265 70.9943C63.0736 69.9678 63.9927 69.5561 65.1725 69.7223Z" fill="#F9F9F9"/>
<path d="M75.9544 69.8571C76.5806 70.1738 77.0515 70.4987 77.4538 71.0785C77.5804 71.5036 77.5722 71.7301 77.4369 72.1482C77.2146 72.1927 76.9922 72.2372 76.7631 72.283C76.688 72.1802 76.613 72.0773 76.5356 71.9713C76.2202 71.6047 75.9915 71.3986 75.5501 71.2048C75.209 71.1627 75.209 71.1627 74.8762 71.3396C74.7393 71.4955 74.6078 71.6561 74.4803 71.8197C74.1218 72.276 74.1218 72.276 73.6127 72.342C73.4376 72.3128 73.4376 72.3128 73.2589 72.283C73.0658 71.8967 73.0829 71.6343 73.1242 71.2048C73.6327 70.1214 74.7851 69.4161 75.9544 69.8571Z" fill="#FAFAFA"/>
</svg>
